# xmcd
#
# Track frame offsets:
#	150
#	12851
#	22902
#	32719
#	44027
#	52433
#	64262
#	75364
#	87709
#	99610
#	110453
#	120493
#	128123
#
# Disc length: 1837 seconds
#
# Revision: 0
# Processed by: cddbd v1.5.2PL0 Copyright (c) Steve Scherf et al.
# Submitted via: EasyCDDAExtractor 11.5.3.1
#
DISCID=ae072b0d
DTITLE=Johnny Cash - I WALK THE LINE CD1
DYEAR=2008
DGENRE=Country
TTITLE0=Folsom Prison Blues
TTITLE1=Get Rythm
TTITLE2=Ballad Of A Teenage Queen
TTITLE3=Big River
TTITLE4=Country Boy
TTITLE5=Doin' My Time
TTITLE6=Don't Make Me Go
TTITLE7=Give My Love To Rose
TTITLE8=Home Of The Blues
TTITLE9=I Heard That Lonesome Whistle Blow
TTITLE10=I Was There When It Happened
TTITLE11=If The Good Lord's Willing (And The Creeks Don't Rise)
TTITLE12=Rock Island Line
EXTD=
EXTT0=
EXTT1=
EXTT2=
EXTT3=
EXTT4=
EXTT5=
EXTT6=
EXTT7=
EXTT8=
EXTT9=
EXTT10=
EXTT11=
EXTT12=
PLAYORDER=
